<svg xmlns="http://www.w3.org/2000/svg" xmlns:xlink="http://www.w3.org/1999/xlink" viewBox="0 0 300 44.7"><defs><linearGradient id="a" x1="81.78" y1="-35.33" x2="74.94" y2="41.79" gradientUnits="userSpaceOnUse"><stop offset="0.01" stop-color="#333"/><stop offset="0.05" stop-color="#383838"/><stop offset="0.26" stop-color="#4d4d4d"/><stop offset="0.4" stop-color="#555"/><stop offset="0.9" stop-color="#333"/></linearGradient><linearGradient id="b" x1="108.3" y1="-32.98" x2="101.45" y2="44.14" xlink:href="#a"/><linearGradient id="c" x1="134.37" y1="-30.67" x2="127.53" y2="46.46" xlink:href="#a"/><linearGradient id="d" x1="164.09" y1="-28.03" x2="157.25" y2="49.1" xlink:href="#a"/><linearGradient id="e" x1="193.45" y1="-25.42" x2="186.61" y2="51.7" xlink:href="#a"/><linearGradient id="f" x1="219.78" y1="-23.09" x2="212.94" y2="54.04" xlink:href="#a"/><linearGradient id="g" x1="246.52" y1="-20.71" x2="239.68" y2="56.41" xlink:href="#a"/><linearGradient id="h" x1="268.45" y1="-18.77" x2="261.61" y2="58.35" xlink:href="#a"/><linearGradient id="i" x1="290.1" y1="-16.85" x2="283.26" y2="60.27" xlink:href="#a"/><linearGradient id="j" x1="70.22" y1="-36.35" x2="63.38" y2="40.77" xlink:href="#a"/><linearGradient id="k" x1="86.81" y1="-34.88" x2="79.97" y2="42.24" xlink:href="#a"/><linearGradient id="l" x1="103.46" y1="-33.4" x2="96.62" y2="43.72" xlink:href="#a"/><linearGradient id="m" x1="120" y1="-31.93" x2="113.16" y2="45.18" xlink:href="#a"/><linearGradient id="n" x1="136.65" y1="-30.46" x2="129.8" y2="46.66" xlink:href="#a"/><linearGradient id="o" x1="152.51" y1="-29.05" x2="145.67" y2="48.07" xlink:href="#a"/><linearGradient id="p" x1="175.59" y1="-27" x2="168.75" y2="50.12" xlink:href="#a"/><linearGradient id="q" x1="191.98" y1="-25.55" x2="185.14" y2="51.57" xlink:href="#a"/><linearGradient id="r" x1="208.15" y1="-24.12" x2="201.3" y2="53" xlink:href="#a"/><linearGradient id="s" x1="224.13" y1="-22.7" x2="217.29" y2="54.42" xlink:href="#a"/><linearGradient id="t" x1="238.83" y1="-21.39" x2="231.99" y2="55.72" xlink:href="#a"/><linearGradient id="u" x1="253.17" y1="-20.12" x2="246.32" y2="57" xlink:href="#a"/><linearGradient id="v" x1="267.07" y1="-18.89" x2="260.22" y2="58.23" xlink:href="#a"/><linearGradient id="w" x1="281.51" y1="-17.61" x2="274.67" y2="59.51" xlink:href="#a"/><linearGradient id="x" x1="297.98" y1="-16.15" x2="291.14" y2="60.97" xlink:href="#a"/><linearGradient id="y" x1="3.35" y1="-0.35" x2="50.11" y2="43.79" gradientUnits="userSpaceOnUse"><stop offset="0.01" stop-color="#333"/><stop offset="0.05" stop-color="#383838"/><stop offset="0.26" stop-color="#4d4d4d"/><stop offset="0.4" stop-color="#555"/><stop offset="0.9" stop-color="#333"/></linearGradient></defs><title>logotype</title><path d="M86.2,31.6h-6L72.1,12.8,68.8,31.6H62.9L68.2,1.4h5.9l8.1,18.7L85.5,1.4h6L86.4,29.9Z" transform="translate(0 -0.3)" style="fill:url(#a)"/><path d="M114.6,13.5l-1.1,5.9H98.4l-.7,4a1.9,1.9,0,0,0,1.9,2.2h12.9l-1.1,6H98.5a6.6,6.6,0,0,1-6.7-8.1L94.3,9.4a10.1,10.1,0,0,1,9.5-8h13l-2.9,5.9H102.8a2.8,2.8,0,0,0-2.6,2.2l-1.2,7-1.2-3Z" transform="translate(0 -0.3)" style="fill:url(#b)"/><path d="M143.3,9.4l-2.5,14.1a10.1,10.1,0,0,1-9.4,8.1h-7.7a6.6,6.6,0,0,1-6.6-8.1l2.5-14.1a9.9,9.9,0,0,1,9.5-8h7.6A6.5,6.5,0,0,1,143.3,9.4Zm-6,.1a1.8,1.8,0,0,0-1.8-2.2h-7.4a3,3,0,0,0-2.7,2.2L123,23.4a1.9,1.9,0,0,0,1.9,2.2h7.3a2.8,2.8,0,0,0,2.7-2.2Z" transform="translate(0 -0.3)" style="fill:url(#c)"/><path d="M176.6,1.4l-5.3,30.2h-5.9l3.3-18.8L161.4,22h-4.5l-4-9.2-3.3,18.8h-5.9L149,1.4h5.9l5.6,13,10.2-13Z" transform="translate(0 -0.3)" style="fill:url(#d)"/><path d="M199.3,23.5a10,10,0,0,1-9.4,8.1h-6.3a6.6,6.6,0,0,1-6.6-8.1l3.9-22.1h5.9l-3.9,22a1.8,1.8,0,0,0,1.8,2.2h6.1a2.8,2.8,0,0,0,2.6-2.2l3.9-22h6Z" transform="translate(0 -0.3)" style="fill:url(#e)"/><path d="M228.2,23.5a10.1,10.1,0,0,1-9.5,8.1H202.2l2.8-6h14.6a2.8,2.8,0,0,0,2.7-2.2l.2-1.7a1.8,1.8,0,0,0-1.8-2.3h-8.4c-4.4,0-7.3-3.6-6.6-8l.4-2a9.9,9.9,0,0,1,9.5-8h14.3L227,7.3H214.6a3,3,0,0,0-2.7,2.2l-.2,1.7a1.8,1.8,0,0,0,1.8,2.3h8.4a6.5,6.5,0,0,1,6.6,8Z" transform="translate(0 -0.3)" style="fill:url(#f)"/><path d="M251.6,25.6l-1,6H238a6.7,6.7,0,0,1-6.7-8.1l2.5-14.1a10.1,10.1,0,0,1,9.5-8h12.6L253,7.3H242.3a2.8,2.8,0,0,0-2.6,2.2l-2.4,13.9a1.8,1.8,0,0,0,1.8,2.2Z" transform="translate(0 -0.3)" style="fill:url(#g)"/><path d="M262.2,31.6a6.7,6.7,0,0,1-6.7-8.1l4-22.1h5.9l-3.9,22a1.8,1.8,0,0,0,1.8,2.2h9.1l.8,6Z" transform="translate(0 -0.3)" style="fill:url(#h)"/><path d="M297.9,13.5l-1.1,5.9H281.7l-.7,4a1.8,1.8,0,0,0,1.8,2.2h12.9l-1,6h-13a6.7,6.7,0,0,1-6.7-8.1l2.5-14.1a10.1,10.1,0,0,1,9.5-8h13l-2.9,5.9H286a2.8,2.8,0,0,0-2.6,2.2l-.5,4Z" transform="translate(0 -0.3)" style="fill:url(#i)"/><path d="M66.2,42.4A2.4,2.4,0,0,1,64,44.3H60.1l.7-1.4h3.4a.6.6,0,0,0,.6-.5V42a.4.4,0,0,0-.4-.6H62.5a1.5,1.5,0,0,1-1.6-1.8v-.5a2.4,2.4,0,0,1,2.2-1.9h3.4l-.7,1.4H63a.6.6,0,0,0-.6.5v.4c0,.3.2.6.4.6h2a1.5,1.5,0,0,1,1.5,1.8Z" transform="translate(0 -0.3)" style="fill:url(#j)"/><path d="M83.1,40.3h0a2.4,2.4,0,0,1-2.2,1.9H79l.6-1.4h1.5a.9.9,0,0,0,.7-.6V39.1c.1-.3-.1-.5-.4-.5H79.1l-1,5.7H76.7l1.2-7.1h3.9a1.5,1.5,0,0,1,1.5,1.9h0Zm0,0Zm.2-1.2Z" transform="translate(0 -0.3)" style="fill:url(#k)"/><path d="M99.9,39.1l-.5,3.3a2.4,2.4,0,0,1-2.2,1.9H95.4a1.6,1.6,0,0,1-1.6-1.9l.6-3.3a2.4,2.4,0,0,1,2.2-1.9h1.8A1.5,1.5,0,0,1,99.9,39.1Zm-1.4,0c.1-.3-.1-.5-.4-.5H96.4a.6.6,0,0,0-.6.5l-.6,3.3a.5.5,0,0,0,.4.5h1.8a.6.6,0,0,0,.6-.5Z" transform="translate(0 -0.3)" style="fill:url(#l)"/><path d="M114.5,44.3l-.8-2.1h-1.3l.7-1.4h1.5a.6.6,0,0,0,.6-.6l.2-1.1c0-.3-.1-.5-.4-.5h-2.5l-1,5.7h-1.4l1.3-7.1h3.8a1.6,1.6,0,0,1,1.6,1.9h0l-.2,1.2h0a2.6,2.6,0,0,1-1.4,1.7l.9,2.3Zm2.1-4Zm.2-1.2Z" transform="translate(0 -0.3)" style="fill:url(#m)"/><path d="M133.2,38.6h-2.1l-.9,5.7h-1.4l.8-5,.9-.7h-2.8l.3-1.4h5.4Z" transform="translate(0 -0.3)" style="fill:url(#n)"/><path d="M149.1,42.4a2.4,2.4,0,0,1-2.2,1.9H143l.7-1.4h3.4a.6.6,0,0,0,.6-.5V42c0-.3-.2-.6-.4-.6h-2a1.5,1.5,0,0,1-1.5-1.8v-.5a2.5,2.5,0,0,1,2.3-1.9h3.3l-.7,1.4h-2.9a.6.6,0,0,0-.6.5v.4a.6.6,0,0,0,.5.6h1.9a1.5,1.5,0,0,1,1.6,1.8Z" transform="translate(0 -0.3)" style="fill:url(#o)"/><path d="M171.7,44.3h-1.4l-1.9-4.4-.8,4.4h-1.4l1.3-7.1h1.4l1.8,4.4.8-4.4h1.4l-1.2,6.7Z" transform="translate(0 -0.3)" style="fill:url(#p)"/><path d="M188.3,42.4a2.3,2.3,0,0,1-2.2,1.9h-1.4a1.6,1.6,0,0,1-1.6-1.9l.9-5.2h1.4l-.9,5.2c0,.3.1.5.4.5h1.4a.8.8,0,0,0,.7-.5l.9-5.2h1.4Z" transform="translate(0 -0.3)" style="fill:url(#q)"/><path d="M205.2,38.6h-2l-1,5.7h-1.4l.9-5,.8-.7h-2.7l.3-1.4h5.4Z" transform="translate(0 -0.3)" style="fill:url(#r)"/><path d="M219.5,44.3l-.9-2.1h-1.2l.6-1.4h1.5a.9.9,0,0,0,.7-.6V39.1c.1-.3-.1-.5-.4-.5h-2.4l-1,5.7h-1.4l1.2-7.1h3.9a1.5,1.5,0,0,1,1.5,1.9h0l-.2,1.2h0a2.4,2.4,0,0,1-1.4,1.7l1,2.3Zm2-4Zm.2-1.2Z" transform="translate(0 -0.3)" style="fill:url(#s)"/><path d="M232,44.3l1.3-7.1h1.3l-1.2,7.1Z" transform="translate(0 -0.3)" style="fill:url(#t)"/><path d="M250.6,38.6h-2l-1,5.7h-1.4l.9-5,.8-.7h-2.7l.2-1.4h5.5Z" transform="translate(0 -0.3)" style="fill:url(#u)"/><path d="M260.5,44.3l1.2-7.1h1.4l-1.3,7.1Z" transform="translate(0 -0.3)" style="fill:url(#v)"/><path d="M279.4,39.1l-.6,3.3a2.4,2.4,0,0,1-2.2,1.9h-1.8a1.5,1.5,0,0,1-1.5-1.9l.6-3.3a2.3,2.3,0,0,1,2.2-1.9h1.7A1.6,1.6,0,0,1,279.4,39.1Zm-1.4,0c0-.3-.1-.5-.4-.5h-1.8a.7.7,0,0,0-.6.5l-.5,3.3c-.1.3.1.5.4.5h1.7a.6.6,0,0,0,.6-.5Z" transform="translate(0 -0.3)" style="fill:url(#w)"/><path d="M295,44.3h-1.4l-1.9-4.4-.7,4.4h-1.4l1.2-7.1h1.4l1.9,4.4.8-4.4h1.4l-1.2,6.7Z" transform="translate(0 -0.3)" style="fill:url(#x)"/><path d="M53.4.3H9.1a2,2,0,0,0-2,2.1L0,42.9A2.1,2.1,0,0,0,2.1,45H46.3a2.1,2.1,0,0,0,2.1-2.1l7-40.5A2,2,0,0,0,53.4.3ZM26,35.3H21.1L14.6,19.6,12,35.3H7.2L11.5,10h4.8l6,14.5,3.9,9.6Zm17.5,0H38.7l2.7-15.7-5.9,7.7H31.8l-3.1-7.6-2.1,9-3.5-7.8L25.4,10h4.9l4.4,10.8L43,10h4.8Z" transform="translate(0 -0.3)" style="fill:url(#y)"/><path d="M21.1,35.2H26l.2-1.2L23.7,28l-5,1.2Z" transform="translate(0 -0.3)" style="fill:none"/><path d="M7.2,35.3H12l.8-5-4.9.6Z" transform="translate(0 -0.3)" style="fill:none"/><path d="M38.7,35.3h4.8l3.1-18.5a46.3,46.3,0,0,1-5.4,3.7Z" transform="translate(0 -0.3)" style="fill:none"/><path d="M26.6,28.7l.4-1.8-1,.4Z" transform="translate(0 -0.3)" style="fill:none"/></svg>