<svg xmlns="http://www.w3.org/2000/svg" xmlns:xlink="http://www.w3.org/1999/xlink" viewBox="0 0 42.2 34"><defs><linearGradient id="a" x1="2.55" y1="-0.44" x2="38.16" y2="33.18" gradientUnits="userSpaceOnUse"><stop offset="0.01" stop-color="#333"/><stop offset="0.05" stop-color="#383838"/><stop offset="0.26" stop-color="#4d4d4d"/><stop offset="0.4" stop-color="#555"/><stop offset="0.9" stop-color="#333"/></linearGradient></defs><title>logotype-mobile1</title><path d="M40.6.1H7A1.6,1.6,0,0,0,5.4,1.6L0,32.5a1.6,1.6,0,0,0,1.6,1.6H35.3a1.6,1.6,0,0,0,1.5-1.6L42.2,1.6A1.6,1.6,0,0,0,40.6.1ZM19.8,26.7H16.1l-4.9-12-2.1,12H5.5L8.8,7.4h3.6L17,18.5l2.9,7.3Zm13.3,0H29.5l2-12L27,20.6H24.2l-2.4-5.8-1.5,6.9-2.7-6,1.8-8.3h3.7v.2l3.4,8.2,6.3-8.4h3.6Z" transform="translate(0 -0.1)" style="fill:url(#a)"/></svg>