<?xml version="1.0" encoding="utf-8"?>
<!-- Generator: Adobe Illustrator 19.0.0, SVG Export Plug-In . SVG Version: 6.00 Build 0)  -->
<svg version="1.1" id="Шар_1" xmlns="http://www.w3.org/2000/svg" xmlns:xlink="http://www.w3.org/1999/xlink" x="0px" y="0px"
	 viewBox="0 0 215 33" style="enable-background:new 0 0 215 33;" xml:space="preserve">
<style type="text/css">
	.st0{fill:url(#XMLID_72_);}
	.st1{fill:url(#XMLID_73_);}
	.st2{fill:url(#XMLID_74_);}
	.st3{fill:url(#XMLID_75_);}
	.st4{fill:url(#XMLID_76_);}
	.st5{fill:url(#XMLID_77_);}
	.st6{fill:url(#XMLID_78_);}
	.st7{fill:url(#XMLID_79_);}
	.st8{fill:url(#XMLID_80_);}
	.st9{fill:url(#XMLID_81_);}
	.st10{fill:url(#XMLID_82_);}
	.st11{fill:url(#XMLID_83_);}
	.st12{fill:url(#XMLID_84_);}
	.st13{fill:url(#XMLID_85_);}
	.st14{fill:url(#XMLID_86_);}
	.st15{fill:url(#XMLID_87_);}
	.st16{fill:url(#XMLID_88_);}
	.st17{fill:url(#XMLID_89_);}
	.st18{fill:url(#XMLID_90_);}
	.st19{fill:url(#XMLID_91_);}
	.st20{fill:url(#XMLID_92_);}
	.st21{fill:url(#XMLID_93_);}
	.st22{fill:url(#XMLID_94_);}
	.st23{fill:url(#XMLID_95_);}
	.st24{fill:url(#XMLID_96_);}
	.st25{fill:none;}
</style>
<g id="XMLID_2_">
	<g id="XMLID_52_">
		<linearGradient id="XMLID_72_" gradientUnits="userSpaceOnUse" x1="58.703" y1="-26.2315" x2="53.662" y2="30.5891">
			<stop  offset="6.060610e-03" style="stop-color:#48484A"/>
			<stop  offset="0.1443" style="stop-color:#5F6062"/>
			<stop  offset="0.2983" style="stop-color:#737577"/>
			<stop  offset="0.4" style="stop-color:#7A7C7F"/>
			<stop  offset="0.897" style="stop-color:#4D4D4F"/>
		</linearGradient>
		<path id="XMLID_70_" class="st0" d="M61.7,23.1h-4.3L51.7,9.2l-2.4,13.9h-4.2l3.8-22.3h4.2l5.8,13.9l2.4-13.9h4.3l-3.6,21.1
			L61.7,23.1z"/>
		<linearGradient id="XMLID_73_" gradientUnits="userSpaceOnUse" x1="77.6949" y1="-24.5187" x2="72.6504" y2="32.3422">
			<stop  offset="6.060610e-03" style="stop-color:#48484A"/>
			<stop  offset="0.1443" style="stop-color:#5F6062"/>
			<stop  offset="0.2983" style="stop-color:#737577"/>
			<stop  offset="0.4" style="stop-color:#7A7C7F"/>
			<stop  offset="0.897" style="stop-color:#4D4D4F"/>
		</linearGradient>
		<path id="XMLID_68_" class="st1" d="M82.1,9.7l-0.8,4.4H70.5l-0.5,2.9c-0.2,0.9,0.4,1.7,1.3,1.7h9.2l-0.7,4.4h-9.3
			c-3.2,0-5.3-2.7-4.8-5.9l1.8-10.4c0.5-3.3,3.6-5.9,6.8-5.9h9.3l-2.1,4.4h-8c-0.9,0-1.7,0.7-1.9,1.7l-0.9,5.1l-0.8-2.2H82.1z"/>
		<linearGradient id="XMLID_74_" gradientUnits="userSpaceOnUse" x1="96.3856" y1="-22.8325" x2="91.3391" y2="34.0507">
			<stop  offset="6.060610e-03" style="stop-color:#48484A"/>
			<stop  offset="0.1443" style="stop-color:#5F6062"/>
			<stop  offset="0.2983" style="stop-color:#737577"/>
			<stop  offset="0.4" style="stop-color:#7A7C7F"/>
			<stop  offset="0.897" style="stop-color:#4D4D4F"/>
		</linearGradient>
		<path id="XMLID_65_" class="st2" d="M102.7,6.7l-1.8,10.4c-0.5,3.3-3.6,5.9-6.8,5.9h-5.5c-3.2,0-5.3-2.7-4.8-5.9l1.8-10.4
			c0.5-3.3,3.6-5.9,6.8-5.9H98C101.1,0.8,103.2,3.4,102.7,6.7z M98.4,6.8c0.2-0.9-0.4-1.7-1.3-1.7h-5.3c-0.9,0-1.7,0.7-1.9,1.7
			l-1.7,10.2c-0.2,0.9,0.4,1.7,1.3,1.7h5.3c0.9,0,1.7-0.8,1.9-1.7L98.4,6.8z"/>
		<linearGradient id="XMLID_75_" gradientUnits="userSpaceOnUse" x1="117.6786" y1="-20.8406" x2="112.6394" y2="35.9613">
			<stop  offset="6.060610e-03" style="stop-color:#48484A"/>
			<stop  offset="0.1443" style="stop-color:#5F6062"/>
			<stop  offset="0.2983" style="stop-color:#737577"/>
			<stop  offset="0.4" style="stop-color:#7A7C7F"/>
			<stop  offset="0.897" style="stop-color:#4D4D4F"/>
		</linearGradient>
		<path id="XMLID_63_" class="st3" d="M126.6,0.8l-3.8,22.3h-4.2l2.4-13.9l-5.2,6.8h-3.3l-2.9-6.8l-2.4,13.9H103l3.8-22.3h4.2l4,9.6
			l7.3-9.6H126.6z"/>
		<linearGradient id="XMLID_76_" gradientUnits="userSpaceOnUse" x1="138.7067" y1="-18.9465" x2="133.6626" y2="37.9094">
			<stop  offset="6.060610e-03" style="stop-color:#48484A"/>
			<stop  offset="0.1443" style="stop-color:#5F6062"/>
			<stop  offset="0.2983" style="stop-color:#737577"/>
			<stop  offset="0.4" style="stop-color:#7A7C7F"/>
			<stop  offset="0.897" style="stop-color:#4D4D4F"/>
		</linearGradient>
		<path id="XMLID_61_" class="st4" d="M142.8,17.1c-0.5,3.3-3.6,5.9-6.8,5.9h-4.5c-3.2,0-5.3-2.7-4.8-5.9l2.8-16.4h4.2l-2.8,16.3
			c-0.2,0.9,0.4,1.7,1.3,1.7h4.3c0.9,0,1.7-0.8,1.9-1.7l2.8-16.3h4.3L142.8,17.1z"/>
		<linearGradient id="XMLID_77_" gradientUnits="userSpaceOnUse" x1="157.599" y1="-17.2118" x2="152.5578" y2="39.6121">
			<stop  offset="6.060610e-03" style="stop-color:#48484A"/>
			<stop  offset="0.1443" style="stop-color:#5F6062"/>
			<stop  offset="0.2983" style="stop-color:#737577"/>
			<stop  offset="0.4" style="stop-color:#7A7C7F"/>
			<stop  offset="0.897" style="stop-color:#4D4D4F"/>
		</linearGradient>
		<path id="XMLID_59_" class="st5" d="M163.5,17.1c-0.5,3.3-3.6,5.9-6.8,5.9h-11.9l2-4.4h10.5c0.9,0,1.7-0.8,1.9-1.7l0.2-1.3
			c0.2-0.9-0.4-1.7-1.3-1.7h-6c-3.2,0-5.3-2.7-4.7-5.9l0.3-1.5c0.5-3.3,3.6-5.9,6.8-5.9h10.3l-2.1,4.4h-8.9c-0.9,0-1.7,0.7-1.9,1.7
			l-0.2,1.3c-0.2,0.9,0.4,1.7,1.3,1.7h6c3.2,0,5.3,2.7,4.7,5.9L163.5,17.1z"/>
		<linearGradient id="XMLID_78_" gradientUnits="userSpaceOnUse" x1="176.7363" y1="-15.4785" x2="171.6915" y2="41.3849">
			<stop  offset="6.060610e-03" style="stop-color:#48484A"/>
			<stop  offset="0.1443" style="stop-color:#5F6062"/>
			<stop  offset="0.2983" style="stop-color:#737577"/>
			<stop  offset="0.4" style="stop-color:#7A7C7F"/>
			<stop  offset="0.897" style="stop-color:#4D4D4F"/>
		</linearGradient>
		<path id="XMLID_57_" class="st6" d="M180.3,18.7l-0.7,4.4h-9c-3.2,0-5.3-2.7-4.8-5.9l1.8-10.4c0.5-3.3,3.6-5.9,6.8-5.9h9l-2.1,4.4
			h-7.7c-0.9,0-1.7,0.7-1.9,1.7L170,17.1c-0.2,0.9,0.4,1.7,1.3,1.7H180.3z"/>
		<linearGradient id="XMLID_79_" gradientUnits="userSpaceOnUse" x1="192.4815" y1="-14.0825" x2="187.4307" y2="42.8493">
			<stop  offset="6.060610e-03" style="stop-color:#48484A"/>
			<stop  offset="0.1443" style="stop-color:#5F6062"/>
			<stop  offset="0.2983" style="stop-color:#737577"/>
			<stop  offset="0.4" style="stop-color:#7A7C7F"/>
			<stop  offset="0.897" style="stop-color:#4D4D4F"/>
		</linearGradient>
		<path id="XMLID_55_" class="st7" d="M187.9,23.1c-3.2,0-5.3-2.7-4.8-5.9l2.8-16.4h4.2l-2.8,16.3c-0.2,0.9,0.4,1.7,1.3,1.7h6.5
			l0.5,4.4H187.9z"/>
		<linearGradient id="XMLID_80_" gradientUnits="userSpaceOnUse" x1="207.9582" y1="-12.6277" x2="202.9137" y2="44.2342">
			<stop  offset="6.060610e-03" style="stop-color:#48484A"/>
			<stop  offset="0.1443" style="stop-color:#5F6062"/>
			<stop  offset="0.2983" style="stop-color:#737577"/>
			<stop  offset="0.4" style="stop-color:#7A7C7F"/>
			<stop  offset="0.897" style="stop-color:#4D4D4F"/>
		</linearGradient>
		<path id="XMLID_53_" class="st8" d="M213.5,9.7l-0.8,4.4h-10.8l-0.5,2.9c-0.2,0.9,0.4,1.7,1.3,1.7h9.2l-0.7,4.4h-9.3
			c-3.2,0-5.3-2.7-4.8-5.9l1.8-10.4c0.5-3.3,3.6-5.9,6.8-5.9h9.3l-2.1,4.4h-8c-0.9,0-1.7,0.7-1.9,1.7l-0.3,2.9H213.5z"/>
	</g>
	<g id="XMLID_13_">
		<linearGradient id="XMLID_81_" gradientUnits="userSpaceOnUse" x1="50.4698" y1="-26.9452" x2="45.4289" y2="29.875">
			<stop  offset="6.060610e-03" style="stop-color:#48484A"/>
			<stop  offset="0.1443" style="stop-color:#5F6062"/>
			<stop  offset="0.2983" style="stop-color:#737577"/>
			<stop  offset="0.4" style="stop-color:#7A7C7F"/>
			<stop  offset="0.897" style="stop-color:#4D4D4F"/>
		</linearGradient>
		<path id="XMLID_50_" class="st9" d="M47.4,31.1c-0.1,0.8-0.8,1.4-1.6,1.4h-2.8l0.5-1H46c0.2,0,0.4-0.2,0.4-0.4l0-0.3
			c0-0.2-0.1-0.4-0.3-0.4h-1.4c-0.7,0-1.2-0.6-1.1-1.4l0.1-0.3c0.1-0.8,0.8-1.4,1.6-1.4h2.4l-0.5,1h-2.1c-0.2,0-0.4,0.2-0.4,0.4
			l0,0.3c0,0.2,0.1,0.4,0.3,0.4h1.4c0.7,0,1.2,0.6,1.1,1.4L47.4,31.1z"/>
		<linearGradient id="XMLID_82_" gradientUnits="userSpaceOnUse" x1="62.3541" y1="-25.8864" x2="57.3111" y2="30.9576">
			<stop  offset="6.060610e-03" style="stop-color:#48484A"/>
			<stop  offset="0.1443" style="stop-color:#5F6062"/>
			<stop  offset="0.2983" style="stop-color:#737577"/>
			<stop  offset="0.4" style="stop-color:#7A7C7F"/>
			<stop  offset="0.897" style="stop-color:#4D4D4F"/>
		</linearGradient>
		<path id="XMLID_46_" class="st10" d="M59.6,29.5C59.6,29.5,59.6,29.5,59.6,29.5c-0.2,0.8-0.9,1.4-1.6,1.4h-1.4l0.5-1h1.1
			c0.2,0,0.4-0.2,0.4-0.4l0.1-0.8c0-0.2-0.1-0.4-0.3-0.4h-1.8l-0.7,4.2h-1l0.9-5.2h2.8c0.7,0,1.2,0.6,1.1,1.4c0,0,0,0,0,0L59.6,29.5
			z M59.6,29.5L59.6,29.5C59.6,29.5,59.6,29.5,59.6,29.5z M59.7,28.6L59.7,28.6C59.7,28.6,59.7,28.6,59.7,28.6z"/>
		<linearGradient id="XMLID_83_" gradientUnits="userSpaceOnUse" x1="74.2819" y1="-24.8299" x2="69.2358" y2="32.0489">
			<stop  offset="6.060610e-03" style="stop-color:#48484A"/>
			<stop  offset="0.1443" style="stop-color:#5F6062"/>
			<stop  offset="0.2983" style="stop-color:#737577"/>
			<stop  offset="0.4" style="stop-color:#7A7C7F"/>
			<stop  offset="0.897" style="stop-color:#4D4D4F"/>
		</linearGradient>
		<path id="XMLID_43_" class="st11" d="M71.6,28.6l-0.4,2.4c-0.1,0.8-0.8,1.4-1.6,1.4h-1.3c-0.7,0-1.2-0.6-1.1-1.4l0.4-2.4
			c0.1-0.8,0.8-1.4,1.6-1.4h1.3C71.3,27.3,71.8,27.9,71.6,28.6z M70.6,28.7c0-0.2-0.1-0.4-0.3-0.4h-1.2c-0.2,0-0.4,0.2-0.4,0.4
			l-0.4,2.4c0,0.2,0.1,0.4,0.3,0.4h1.2c0.2,0,0.4-0.2,0.4-0.4L70.6,28.7z"/>
		<linearGradient id="XMLID_84_" gradientUnits="userSpaceOnUse" x1="86.1339" y1="-23.7127" x2="81.0912" y2="33.128">
			<stop  offset="6.060610e-03" style="stop-color:#48484A"/>
			<stop  offset="0.1443" style="stop-color:#5F6062"/>
			<stop  offset="0.2983" style="stop-color:#737577"/>
			<stop  offset="0.4" style="stop-color:#7A7C7F"/>
			<stop  offset="0.897" style="stop-color:#4D4D4F"/>
		</linearGradient>
		<path id="XMLID_39_" class="st12" d="M82.1,32.5l-0.6-1.6h-0.9l0.5-1h1.1c0.2,0,0.4-0.2,0.4-0.4l0.1-0.8c0-0.2-0.1-0.4-0.3-0.4
			h-1.8l-0.7,4.2h-1l0.9-5.2h2.8c0.7,0,1.2,0.6,1.1,1.4c0,0,0,0,0,0l-0.1,0.9c0,0,0,0,0,0c-0.1,0.5-0.5,1-1,1.2l0.7,1.7H82.1z
			 M83.6,29.5L83.6,29.5C83.6,29.5,83.6,29.5,83.6,29.5z M83.7,28.6L83.7,28.6C83.7,28.6,83.7,28.6,83.7,28.6z"/>
		<linearGradient id="XMLID_85_" gradientUnits="userSpaceOnUse" x1="98.0539" y1="-22.6353" x2="93.0099" y2="34.2197">
			<stop  offset="6.060610e-03" style="stop-color:#48484A"/>
			<stop  offset="0.1443" style="stop-color:#5F6062"/>
			<stop  offset="0.2983" style="stop-color:#737577"/>
			<stop  offset="0.4" style="stop-color:#7A7C7F"/>
			<stop  offset="0.897" style="stop-color:#4D4D4F"/>
		</linearGradient>
		<path id="XMLID_37_" class="st13" d="M95.4,28.3H94l-0.7,4.2h-1l0.6-3.7l0.6-0.5h-1.9l0.2-1h3.9L95.4,28.3z"/>
		<linearGradient id="XMLID_86_" gradientUnits="userSpaceOnUse" x1="109.4267" y1="-21.5675" x2="104.3857" y2="35.2532">
			<stop  offset="6.060610e-03" style="stop-color:#48484A"/>
			<stop  offset="0.1443" style="stop-color:#5F6062"/>
			<stop  offset="0.2983" style="stop-color:#737577"/>
			<stop  offset="0.4" style="stop-color:#7A7C7F"/>
			<stop  offset="0.897" style="stop-color:#4D4D4F"/>
		</linearGradient>
		<path id="XMLID_35_" class="st14" d="M106.9,31.1c-0.1,0.8-0.8,1.4-1.6,1.4h-2.8l0.5-1h2.4c0.2,0,0.4-0.2,0.4-0.4l0-0.3
			c0-0.2-0.1-0.4-0.3-0.4h-1.4c-0.7,0-1.2-0.6-1.1-1.4l0.1-0.3c0.1-0.8,0.8-1.4,1.6-1.4h2.4l-0.5,1h-2.1c-0.2,0-0.4,0.2-0.4,0.4
			l0,0.3c0,0.2,0.1,0.4,0.3,0.4h1.4c0.7,0,1.2,0.6,1.1,1.4L106.9,31.1z"/>
		<linearGradient id="XMLID_87_" gradientUnits="userSpaceOnUse" x1="125.9637" y1="-20.055" x2="120.9232" y2="36.7613">
			<stop  offset="6.060610e-03" style="stop-color:#48484A"/>
			<stop  offset="0.1443" style="stop-color:#5F6062"/>
			<stop  offset="0.2983" style="stop-color:#737577"/>
			<stop  offset="0.4" style="stop-color:#7A7C7F"/>
			<stop  offset="0.897" style="stop-color:#4D4D4F"/>
		</linearGradient>
		<path id="XMLID_33_" class="st15" d="M123,32.5h-1l-1.4-3.2l-0.6,3.2h-1l0.9-5.2h1l1.3,3.2l0.6-3.2h1l-0.8,4.9L123,32.5z"/>
		<linearGradient id="XMLID_88_" gradientUnits="userSpaceOnUse" x1="137.7041" y1="-19.0139" x2="132.6604" y2="37.8382">
			<stop  offset="6.060610e-03" style="stop-color:#48484A"/>
			<stop  offset="0.1443" style="stop-color:#5F6062"/>
			<stop  offset="0.2983" style="stop-color:#737577"/>
			<stop  offset="0.4" style="stop-color:#7A7C7F"/>
			<stop  offset="0.897" style="stop-color:#4D4D4F"/>
		</linearGradient>
		<path id="XMLID_31_" class="st16" d="M135,31.1c-0.1,0.8-0.8,1.4-1.6,1.4h-1c-0.7,0-1.2-0.6-1.1-1.4l0.7-3.8h1l-0.7,3.8
			c0,0.2,0.1,0.4,0.3,0.4h1c0.2,0,0.4-0.2,0.4-0.4l0.7-3.8h1L135,31.1z"/>
		<linearGradient id="XMLID_89_" gradientUnits="userSpaceOnUse" x1="149.2842" y1="-17.9598" x2="144.2402" y2="38.8959">
			<stop  offset="6.060610e-03" style="stop-color:#48484A"/>
			<stop  offset="0.1443" style="stop-color:#5F6062"/>
			<stop  offset="0.2983" style="stop-color:#737577"/>
			<stop  offset="0.4" style="stop-color:#7A7C7F"/>
			<stop  offset="0.897" style="stop-color:#4D4D4F"/>
		</linearGradient>
		<path id="XMLID_29_" class="st17" d="M147.1,28.3h-1.5l-0.7,4.2h-1l0.6-3.7l0.6-0.5h-1.9l0.2-1h3.9L147.1,28.3z"/>
		<linearGradient id="XMLID_90_" gradientUnits="userSpaceOnUse" x1="160.7442" y1="-16.9069" x2="155.7012" y2="39.9371">
			<stop  offset="6.060610e-03" style="stop-color:#48484A"/>
			<stop  offset="0.1443" style="stop-color:#5F6062"/>
			<stop  offset="0.2983" style="stop-color:#737577"/>
			<stop  offset="0.4" style="stop-color:#7A7C7F"/>
			<stop  offset="0.897" style="stop-color:#4D4D4F"/>
		</linearGradient>
		<path id="XMLID_25_" class="st18" d="M157.3,32.5l-0.6-1.6h-0.9l0.5-1h1.1c0.2,0,0.4-0.2,0.4-0.4l0.1-0.8c0-0.2-0.1-0.4-0.3-0.4
			h-1.8l-0.7,4.2h-1l0.9-5.2h2.8c0.7,0,1.2,0.6,1.1,1.4c0,0,0,0,0,0l-0.2,0.9c0,0,0,0,0,0c-0.1,0.5-0.5,1-1,1.2l0.7,1.7H157.3z
			 M158.8,29.5L158.8,29.5C158.8,29.5,158.8,29.5,158.8,29.5z M158.9,28.6L158.9,28.6C158.9,28.6,158.9,28.6,158.9,28.6z"/>
		<linearGradient id="XMLID_91_" gradientUnits="userSpaceOnUse" x1="171.2789" y1="-15.985" x2="166.2315" y2="40.9091">
			<stop  offset="6.060610e-03" style="stop-color:#48484A"/>
			<stop  offset="0.1443" style="stop-color:#5F6062"/>
			<stop  offset="0.2983" style="stop-color:#737577"/>
			<stop  offset="0.4" style="stop-color:#7A7C7F"/>
			<stop  offset="0.897" style="stop-color:#4D4D4F"/>
		</linearGradient>
		<path id="XMLID_23_" class="st19" d="M166.3,32.5l0.9-5.2h1l-0.9,5.2H166.3z"/>
		<linearGradient id="XMLID_92_" gradientUnits="userSpaceOnUse" x1="181.5406" y1="-15.0153" x2="176.4966" y2="41.8402">
			<stop  offset="6.060610e-03" style="stop-color:#48484A"/>
			<stop  offset="0.1443" style="stop-color:#5F6062"/>
			<stop  offset="0.2983" style="stop-color:#737577"/>
			<stop  offset="0.4" style="stop-color:#7A7C7F"/>
			<stop  offset="0.897" style="stop-color:#4D4D4F"/>
		</linearGradient>
		<path id="XMLID_21_" class="st20" d="M179.6,28.3h-1.5l-0.7,4.2h-1l0.6-3.7l0.6-0.5h-1.9l0.2-1h3.9L179.6,28.3z"/>
		<linearGradient id="XMLID_93_" gradientUnits="userSpaceOnUse" x1="191.5084" y1="-14.1389" x2="186.4607" y2="42.7577">
			<stop  offset="6.060610e-03" style="stop-color:#48484A"/>
			<stop  offset="0.1443" style="stop-color:#5F6062"/>
			<stop  offset="0.2983" style="stop-color:#737577"/>
			<stop  offset="0.4" style="stop-color:#7A7C7F"/>
			<stop  offset="0.897" style="stop-color:#4D4D4F"/>
		</linearGradient>
		<path id="XMLID_19_" class="st21" d="M186.7,32.5l0.9-5.2h1l-0.9,5.2H186.7z"/>
		<linearGradient id="XMLID_94_" gradientUnits="userSpaceOnUse" x1="201.8594" y1="-13.1827" x2="196.8129" y2="43.6999">
			<stop  offset="6.060610e-03" style="stop-color:#48484A"/>
			<stop  offset="0.1443" style="stop-color:#5F6062"/>
			<stop  offset="0.2983" style="stop-color:#737577"/>
			<stop  offset="0.4" style="stop-color:#7A7C7F"/>
			<stop  offset="0.897" style="stop-color:#4D4D4F"/>
		</linearGradient>
		<path id="XMLID_16_" class="st22" d="M200.2,28.6l-0.4,2.4c-0.1,0.8-0.8,1.4-1.6,1.4H197c-0.7,0-1.2-0.6-1.1-1.4l0.4-2.4
			c0.1-0.8,0.8-1.4,1.6-1.4h1.3C199.9,27.3,200.4,27.9,200.2,28.6z M199.2,28.7c0-0.2-0.1-0.4-0.3-0.4h-1.2c-0.2,0-0.4,0.2-0.4,0.4
			l-0.4,2.4c0,0.2,0.1,0.4,0.3,0.4h1.2c0.2,0,0.4-0.2,0.4-0.4L199.2,28.7z"/>
		<linearGradient id="XMLID_95_" gradientUnits="userSpaceOnUse" x1="213.6562" y1="-12.0578" x2="208.6154" y2="44.7606">
			<stop  offset="6.060610e-03" style="stop-color:#48484A"/>
			<stop  offset="0.1443" style="stop-color:#5F6062"/>
			<stop  offset="0.2983" style="stop-color:#737577"/>
			<stop  offset="0.4" style="stop-color:#7A7C7F"/>
			<stop  offset="0.897" style="stop-color:#4D4D4F"/>
		</linearGradient>
		<path id="XMLID_14_" class="st23" d="M211.4,32.5h-1l-1.4-3.2l-0.6,3.2h-1l0.9-5.2h1l1.3,3.2l0.6-3.2h1l-0.8,4.9L211.4,32.5z"/>
	</g>
	<g id="XMLID_8_">
		<linearGradient id="XMLID_96_" gradientUnits="userSpaceOnUse" x1="2.136" y1="-0.2409" x2="36.1572" y2="31.8799">
			<stop  offset="6.060610e-03" style="stop-color:#48484A"/>
			<stop  offset="0.1443" style="stop-color:#5F6062"/>
			<stop  offset="0.2983" style="stop-color:#737577"/>
			<stop  offset="0.4" style="stop-color:#7A7C7F"/>
			<stop  offset="0.897" style="stop-color:#4D4D4F"/>
		</linearGradient>
		<path id="XMLID_9_" class="st24" d="M38.3,0H6.5C5.7,0,5.1,0.7,5.1,1.5L0,31.5C0,32.3,0.7,33,1.5,33h31.7c0.8,0,1.5-0.7,1.5-1.5
			l5.1-29.9C39.7,0.7,39.1,0,38.3,0z M18.6,25.9L18.6,25.9h-3.4h0l0-0.1l-4.7-11.6L8.6,25.9H5.2L8.2,7.1h3.4L16,17.9l2.8,7.1
			L18.6,25.9z M31.2,25.9h-3.4l1.9-11.7L25.4,20h-2.6l-2.3-5.6l-1.4,6.6l-2.5-5.8l1.7-8h0h3.4h0.1l0,0.1l3.2,8l5.9-8.1h3.4
			L31.2,25.9z"/>
	</g>
	<g id="XMLID_3_">
		<path id="XMLID_7_" class="st25" d="M15.2,25.8L15.2,25.8L15.2,25.8l3.4,0.1h0.1l0.1-0.9L17,20.4c-1.2,0.3-2.4,0.6-3.6,0.9
			L15.2,25.8z"/>
		<path id="XMLID_6_" class="st25" d="M5.2,25.9h3.4l0.6-3.7c-1.2,0.2-2.3,0.3-3.5,0.4L5.2,25.9z"/>
		<path id="XMLID_5_" class="st25" d="M27.7,25.9h3.4l2.3-13.7c-1.2,1-2.5,1.9-3.9,2.7L27.7,25.9z"/>
		<path id="XMLID_4_" class="st25" d="M19.1,20.9l0.3-1.3c-0.2,0.1-0.5,0.2-0.7,0.2L19.1,20.9z"/>
	</g>
</g>
</svg>
